<?xml version="1.0" encoding="utf-8"?>
<!-- Generator: Adobe Illustrator 19.1.0, SVG Export Plug-In . SVG Version: 6.00 Build 0)  -->
<!DOCTYPE svg PUBLIC "-//W3C//DTD SVG 1.1//EN" "http://www.w3.org/Graphics/SVG/1.1/DTD/svg11.dtd">
<svg version="1.1" id="Layer_1" xmlns="http://www.w3.org/2000/svg" xmlns:xlink="http://www.w3.org/1999/xlink" x="0px" y="0px"
	 viewBox="0 0 104.4 15.5" style="enable-background:new 0 0 104.4 15.5;" xml:space="preserve">
<style type="text/css">
	.st0{fill:#006BB6;}
	.st1{fill:#7BC155;}
</style>
<g>
	<path class="st0" d="M1.5,15.5c-0.9,0-1.5-0.7-1.5-1.5c0-0.9,0.7-1.5,1.5-1.5h13.9c0.9,0,1.5-0.7,1.5-1.5c0-0.9-0.7-1.5-1.5-1.5
		H4.6C2.1,9.3,0,7.2,0,4.6C0,2.1,2.1,0,4.6,0h13.1c0.9,0,1.5,0.7,1.5,1.5c0,0.9-0.7,1.5-1.5,1.5H4.6c-0.9,0-1.5,0.7-1.5,1.5
		c0,0.9,0.7,1.5,1.5,1.5h10.8c2.6,0,4.6,2.1,4.6,4.6c0,2.6-2.1,4.6-4.6,4.6H1.5z"/>
	<path class="st0" d="M24.1,1.5c0-0.9-0.7-1.5-1.5-1.5C21.7,0,21,0.7,21,1.5v10.8c0,1.7,1.4,3.1,3.1,3.1h11.6c0.9,0,1.5-0.7,1.5-1.5
		c0-0.9-0.7-1.5-1.5-1.5H24.1V1.5z"/>
	<path class="st0" d="M56.6,13.9c0,0.9-0.7,1.5-1.5,1.5H39.6c-0.9,0-1.5-0.7-1.5-1.5V1.5C38,0.7,38.7,0,39.6,0H55
		c0.9,0,1.5,0.7,1.5,1.5V13.9z M41.1,12.4h12.4V3.1H41.1V12.4z"/>
	<path class="st0" d="M68.1,4.1l-8,10.7c-0.5,0.7-1.5,0.8-2.2,0.4c-0.7-0.5-0.9-1.4-0.4-2l9.3-12.4c0.3-0.4,0.7-0.6,1.3-0.6
		c0.5,0,1,0.2,1.3,0.6l9.3,12.4c0.5,0.7,0.3,1.6-0.4,2c-0.7,0.5-1.7,0.3-2.2-0.4L68.1,4.1z"/>
	<path class="st1" d="M71.2,13.9c0.9,0,1.5-0.7,1.5-1.5c0-0.9-0.7-1.5-1.5-1.5H65c-0.9,0-1.5,0.7-1.5,1.5c0,0.9,0.7,1.5,1.5,1.5
		H71.2z"/>
	<path class="st0" d="M79.9,1.5V14c0,0.8,0.7,1.5,1.5,1.5c0.9,0,1.5-0.7,1.5-1.5V4.6L96.5,15c0.3,0.3,0.7,0.5,1.2,0.5
		c0.9,0,1.5-0.7,1.5-1.5V1.5c0-0.8-0.7-1.5-1.5-1.5c-0.9,0-1.5,0.7-1.5,1.5v9.4L82.4,0.4c-0.3-0.2-0.6-0.3-1-0.3
		C80.6,0.1,79.9,0.7,79.9,1.5"/>
	<path class="st0" d="M102.4,11.9c0.4,0,0.8,0.2,1.1,0.5c0.3,0.3,0.5,0.7,0.5,1.1c0,0.4-0.2,0.8-0.5,1.2c-0.3,0.3-0.7,0.5-1.1,0.5
		c-0.4,0-0.8-0.2-1.1-0.5c-0.3-0.3-0.5-0.7-0.5-1.2c0-0.4,0.2-0.8,0.5-1.1C101.6,12.1,102,11.9,102.4,11.9 M104.4,13.6
		c0-0.5-0.2-1-0.6-1.4c-0.4-0.4-0.8-0.6-1.4-0.6c-0.5,0-1,0.2-1.3,0.5c-0.4,0.4-0.6,0.9-0.6,1.4c0,0.6,0.2,1,0.6,1.4
		c0.4,0.4,0.8,0.6,1.4,0.6c0.5,0,1-0.2,1.4-0.6C104.2,14.6,104.4,14.1,104.4,13.6 M102.8,13.1c0,0.1,0,0.2-0.1,0.3
		c-0.1,0.1-0.2,0.1-0.3,0.1h-0.2v-0.6h0.1c0.1,0,0.3,0,0.3,0C102.7,12.9,102.8,13,102.8,13.1 M102.1,14.6v-0.8h0.1l0.1,0
		c0.1,0,0.2,0,0.2,0c0.1,0,0.1,0.1,0.2,0.2c0,0,0,0.1,0,0.3c0,0.1,0,0.2,0,0.3h0.5l0-0.1c0,0,0,0,0-0.1c0,0,0,0,0-0.1v-0.2
		c0-0.2-0.1-0.4-0.2-0.5c-0.1-0.1-0.2-0.1-0.3-0.1c0.1,0,0.3-0.1,0.4-0.1c0.1-0.1,0.2-0.2,0.2-0.4c0-0.2-0.1-0.4-0.3-0.5
		c-0.1-0.1-0.3-0.1-0.4-0.1c0,0-0.2,0-0.4,0c-0.3,0-0.5,0-0.6,0v2.2H102.1z"/>
</g>
</svg>
